<svg width="115" height="115" viewBox="0 0 115 115" fill="none" xmlns="http://www.w3.org/2000/svg">
<path d="M69.7178 82.1826C77.1656 79.0113 85.6192 79.1172 93 82.5L105 88V101L93 95.5C85.6192 92.1172 77.1656 92.0113 69.7178 95.1826L68.2822 95.8174C61.0747 98.8864 52.9253 98.8864 45.7178 95.8174L44.2822 95.1826C36.8344 92.0113 28.3808 92.1172 21 95.5L9 101V88L21 82.5C28.3808 79.1172 36.8344 79.0113 44.2822 82.1826L45.7178 82.8174C52.9253 85.8864 61.0747 85.8864 68.2822 82.8174L69.7178 82.1826ZM76.6074 17.1787L70.1963 42.6025L88.8105 23.9883L98.0029 33.1816L80.8115 50.3721L104.639 43.9883L108.003 56.5459L83.5762 63.0908L108.003 69.6357L104.639 82.1924L103.921 82H104L99.6348 80.4307C84.8487 75.1147 71.5226 66.3894 60.7383 54.9619C58.7097 52.812 55.2903 52.812 53.2617 54.9619C42.4774 66.3894 29.1513 75.1147 14.3652 80.4307L10 82H10.1182L9.36426 82.2021L6 69.6445L30.4258 63.0996L6 56.5547L9.36426 43.998L33.1914 50.3818L16 33.1904L25.1924 23.998L43.8057 42.6113L37.3965 17.1875L50.002 14.0098L57 41.7676L64.001 14L76.6074 17.1787Z" fill="#262626"/>
</svg>
